HIERARCHY
ROOT root
{
	OFFSET 0.000000 0.000000 0.000000
	CHANNELS 6 Xposition Yposition Zposition Zrotation Yrotation Xrotation
	JOINT lhip
	{
		OFFSET 0.058581 -0.082280 -0.017664
		CHANNELS 3 Zrotation Yrotation Xrotation
		JOINT lknee
		{
			OFFSET 0.043451 -0.386469 0.008037
			CHANNELS 3 Zrotation Yrotation Xrotation
			JOINT lankle
			{
				OFFSET -0.014790 -0.426874 -0.037428
				CHANNELS 3 Zrotation Yrotation Xrotation
				JOINT ltoe
				{
					OFFSET 0.041054 -0.060286 0.122042
					CHANNELS 3 Zrotation Yrotation Xrotation
					End Site
					{
						OFFSET 0.000000 0.000000 0.000000
					}
				}
			}
		}
	}
	JOINT rhip
	{
		OFFSET -0.060310 -0.090513 -0.013543
		CHANNELS 3 Zrotation Yrotation Xrotation
		JOINT rknee
		{
			OFFSET -0.043257 -0.383688 -0.004843
			CHANNELS 3 Zrotation Yrotation Xrotation
			JOINT rankle
			{
				OFFSET 0.019056 -0.420046 -0.034562
				CHANNELS 3 Zrotation Yrotation Xrotation
				JOINT rtoe
				{
					OFFSET -0.034840 -0.062106 0.130323
					CHANNELS 3 Zrotation Yrotation Xrotation
					End Site
					{
						OFFSET 0.000000 0.000000 0.000000
					}
				}
			}
		}
	}
	JOINT lowerback
	{
		OFFSET 0.004439 0.124404 -0.038385
		CHANNELS 3 Zrotation Yrotation Xrotation
		JOINT upperback
		{
			OFFSET 0.004488 0.137956 0.026820
			CHANNELS 3 Zrotation Yrotation Xrotation
			JOINT chest
			{
				OFFSET -0.002265 0.056032 0.002855
				CHANNELS 3 Zrotation Yrotation Xrotation
				JOINT lowerneck
				{
					OFFSET -0.013390 0.211636 -0.033468
					CHANNELS 3 Zrotation Yrotation Xrotation
					JOINT upperneck
					{
						OFFSET 0.010113 0.088937 0.050410
						CHANNELS 3 Zrotation Yrotation Xrotation
						End Site
						{
							OFFSET 0.000000 0.000000 0.000000
						}
					}
				}
				JOINT lclavicle
				{
					OFFSET 0.071702 0.114000 -0.018898
					CHANNELS 3 Zrotation Yrotation Xrotation
					JOINT lshoulder
					{
						OFFSET 0.122921 0.045205 -0.019046
						CHANNELS 3 Zrotation Yrotation Xrotation
						JOINT lelbow
						{
							OFFSET 0.255332 -0.015649 -0.022946
							CHANNELS 3 Zrotation Yrotation Xrotation
							JOINT lwrist
							{
								OFFSET 0.265709 0.012698 -0.007375
								CHANNELS 3 Zrotation Yrotation Xrotation
								End Site
								{
									OFFSET 0.000000 0.000000 0.000000
								}
							}
						}
					}
				}
				JOINT rclavicle
				{
					OFFSET -0.082954 0.112472 -0.023707
					CHANNELS 3 Zrotation Yrotation Xrotation
					JOINT rshoulder
					{
						OFFSET -0.113228 0.046853 -0.008472
						CHANNELS 3 Zrotation Yrotation Xrotation
						JOINT relbow
						{
							OFFSET -0.260127 -0.014369 -0.031269
							CHANNELS 3 Zrotation Yrotation Xrotation
							JOINT rwrist
							{
								OFFSET -0.269108 0.006794 -0.006027
								CHANNELS 3 Zrotation Yrotation Xrotation
								End Site
								{
									OFFSET 0.000000 0.000000 0.000000
								}
							}
						}
					}
				}
			}
		}
	}
}
MOTION
Frames: 10
Frame Time: 0.033333
0.316147 -0.237181 0.971648 172.217869 -0.051975 90.970003 8.649343 1.854734 -11.195290 -7.256763 -4.136273 16.466611 2.136528 8.707142 -10.178882 0.000000 -0.000000 0.000000 -8.391625 -3.265250 -18.082528 1.750895 1.456753 20.877344 5.511318 -3.780056 -4.711918 0.000000 -0.000000 0.000000 -0.057889 0.185242 20.555768 0.182971 -3.189598 2.676241 -0.129607 0.278787 1.214149 -0.499529 7.821093 21.512963 6.074455 6.267587 23.497195 -24.175598 -19.481172 6.322163 -61.919530 -19.363210 25.270103 -10.273705 -44.079495 7.984371 23.228514 16.306603 -43.688464 20.622658 18.894877 5.921719 63.031161 18.043578 26.969928 1.832290 43.526497 0.873374 -14.119088 -9.408674 -36.753605 
0.315565 -0.237143 0.971510 172.375350 -0.083194 91.022273 8.593198 1.850391 -11.288547 -7.313477 -4.234954 16.446752 2.182819 8.674921 -10.120180 0.000000 -0.000000 0.000000 -8.522822 -3.315886 -18.096855 1.811032 1.393138 20.847943 5.595881 -3.806510 -4.667831 0.000000 -0.000000 0.000000 -0.032956 0.161285 20.556227 0.161708 -3.208449 2.607471 -0.122736 0.308673 1.265954 -0.505413 7.731554 21.434304 6.059584 6.220380 23.552910 -24.124340 -19.431155 6.163377 -61.995769 -19.280693 25.315506 -10.297262 -44.066523 7.764634 23.860033 16.792128 -43.050728 20.628890 18.935002 5.890207 63.086348 18.039704 27.041918 1.829302 43.463533 0.728314 -14.291306 -9.500104 -36.561916 
0.314644 -0.237000 0.971482 172.676726 -0.145357 90.972752 8.423499 1.668218 -11.278706 -7.251979 -4.364249 16.394795 2.151344 8.643852 -10.111004 0.000000 -0.000000 0.000000 -8.675795 -3.431118 -17.953014 1.769831 1.242489 20.802846 5.597536 -3.802942 -4.689736 0.000000 -0.000000 0.000000 0.097253 0.145783 20.585576 0.170232 -3.268294 2.707028 -0.189977 0.322076 1.292823 -0.388486 7.664822 21.367787 5.965259 6.017525 23.434322 -24.148008 -19.454077 6.170024 -61.989836 -19.336276 25.335808 -10.340307 -43.962435 8.014458 22.947981 16.302857 -43.620124 20.643309 18.932323 5.811863 63.219360 17.996914 27.086457 1.413684 43.364547 0.674066 -13.847567 -9.436239 -36.627931 
0.313835 -0.236911 0.971670 172.976554 -0.176495 90.906227 8.311084 1.622158 -11.235822 -7.252042 -4.460683 16.326758 2.122309 8.601653 -10.038171 0.000000 -0.000000 0.000000 -8.742801 -3.643396 -17.763771 1.725176 1.227893 20.718654 5.617558 -3.861941 -4.720068 0.000000 -0.000000 0.000000 0.193391 0.144652 20.713377 0.143393 -3.311593 2.697109 -0.144520 0.362617 1.256420 -0.444982 7.516906 21.200452 5.956071 5.932131 23.698730 -24.058560 -19.505933 6.160852 -62.136805 -19.219577 25.363817 -10.133199 -44.099876 7.601316 24.125914 16.956574 -43.229067 20.682289 19.058215 5.821478 63.186931 17.947956 27.026167 1.555432 43.360533 0.487173 -14.436096 -9.585296 -36.603746 
0.313141 -0.236655 0.971892 173.263423 -0.225587 90.903603 8.201860 1.603118 -11.219023 -7.269888 -4.667502 16.228242 2.119546 8.471941 -9.991039 0.000000 -0.000000 0.000000 -8.871729 -3.781527 -17.623208 1.734137 1.150034 20.604500 5.670470 -3.923109 -4.683325 0.000000 -0.000000 0.000000 0.292236 0.312737 20.678063 0.227308 -3.233133 2.628143 -0.091040 0.232989 1.386420 -0.524545 7.445144 21.371588 6.027602 5.937378 23.573507 -24.123111 -19.490971 6.191318 -62.159220 -19.282553 25.392589 -10.210935 -44.035164 7.317448 24.535117 17.146180 -42.970711 20.739088 19.012510 5.836474 63.050417 17.990509 27.007279 1.839465 43.332394 0.512695 -14.535418 -9.396570 -36.661947 
0.312646 -0.236181 0.972038 173.435898 -0.337785 90.864045 8.121311 1.571743 -11.040433 -7.395518 -4.770852 15.942718 2.169665 8.425689 -9.862257 0.000000 -0.000000 0.000000 -9.084807 -3.975416 -17.447683 1.799667 1.056663 20.512085 5.681492 -3.857914 -4.633908 0.000000 -0.000000 0.000000 0.347590 0.539460 20.569192 0.209056 -3.243244 2.887952 -0.053233 0.358305 1.291309 -0.476915 7.364677 21.436921 6.063985 5.942775 23.499601 -24.111108 -19.515512 6.047672 -62.178365 -19.118161 25.417680 -10.306705 -44.160421 7.159210 24.777075 17.416701 -42.777567 20.827346 19.149881 5.940544 62.989893 17.863897 26.951793 1.550116 43.418979 0.190152 -14.325768 -9.678318 -36.105500 
0.311880 -0.236210 0.972361 173.924942 -0.408544 90.886181 8.013603 1.547373 -11.092792 -7.471887 -5.044809 15.781421 2.052552 8.226427 -9.676455 0.000000 -0.000000 0.000000 -9.261597 -4.092389 -17.270074 1.776051 0.848049 20.348125 5.713270 -3.995737 -4.604238 0.000000 -0.000000 0.000000 0.404853 0.492632 20.541630 0.255488 -3.214729 2.864773 0.035612 0.390343 1.407177 -0.546636 7.285980 21.474258 6.099083 5.998142 23.309184 -24.019440 -19.391432 5.916724 -62.311296 -19.100488 25.503211 -10.342697 -44.236139 7.214836 25.454411 18.067886 -42.478836 20.838267 19.105027 5.978017 62.910567 18.125089 26.846962 2.121294 43.294344 0.508237 -14.724399 -9.467019 -36.412245 
0.310831 -0.236151 0.972524 174.384527 -0.519525 90.991471 7.825617 1.467390 -11.146190 -7.473557 -5.218571 15.480795 2.095040 8.078485 -9.496546 0.000000 -0.000000 0.000000 -9.480776 -4.182117 -17.205638 1.735642 0.717338 20.231274 5.729341 -4.203846 -4.560876 0.000000 -0.000000 0.000000 0.496877 0.676621 20.374529 0.347327 -3.152372 2.894947 0.128508 0.374487 1.448116 -0.602869 7.058272 21.479607 6.132491 5.877080 23.292167 -23.965973 -19.506962 5.944192 -62.452984 -18.987922 25.550873 -10.106001 -44.345805 7.203889 25.587658 18.664835 -41.876833 20.825486 19.245482 6.066034 62.891140 17.971101 26.714217 1.817489 43.453676 0.317864 -14.477144 -9.434566 -36.647835 
0.309821 -0.236310 0.972943 175.064050 -0.601498 90.993511 7.680982 1.229724 -11.142959 -7.506818 -5.511418 15.165216 1.976718 7.892022 -9.271053 0.000000 -0.000000 0.000000 -9.603778 -4.380701 -17.009365 1.558925 0.440720 20.129973 5.790274 -4.363188 -4.576619 0.000000 -0.000000 0.000000 0.728982 0.688525 20.403988 0.373948 -3.205099 3.014940 0.143880 0.482004 1.386787 -0.635442 6.993815 21.409677 6.200863 5.750261 23.092568 -23.902348 -19.555568 5.869971 -62.484735 -18.970409 25.603081 -9.987444 -44.408278 7.080102 25.197022 18.563199 -42.104700 20.802961 19.344090 5.909092 62.907272 17.842078 26.696732 1.666040 43.413785 0.290148 -13.938579 -9.424070 -36.453890 
0.308498 -0.236283 0.973140 175.825975 -0.766620 91.041999 7.404521 1.017562 -11.208428 -7.510338 -5.856013 14.891120 1.983843 7.660989 -9.121766 0.000000 -0.000000 0.000000 -9.934438 -4.598597 -16.739578 1.493539 0.140449 19.886062 5.820867 -4.533384 -4.511568 0.000000 -0.000000 0.000000 0.914565 0.733694 20.309168 0.427439 -3.242487 3.029850 0.179841 0.479228 1.465751 -0.647172 6.895947 21.391351 6.227767 5.666424 23.114804 -23.861560 -19.617004 5.826155 -62.570355 -19.014796 25.677093 -9.881396 -44.312248 6.928920 25.261266 18.469680 -42.070506 20.882819 19.333568 5.926638 62.728848 17.859778 26.599187 1.786210 43.429861 0.386095 -13.529447 -9.215558 -36.421911 
